<?xml version="1.0" standalone="no"?>
<!DOCTYPE svg PUBLIC "-//W3C//DTD SVG 20010904//EN"
 "http://www.w3.org/TR/2001/REC-SVG-20010904/DTD/svg10.dtd">
<svg version="1.0" xmlns="http://www.w3.org/2000/svg"
 width="2708.000000pt" height="2708.000000pt" viewBox="0 0 2708.000000 2708.000000"
 preserveAspectRatio="xMidYMid meet">
<metadata>
Created by potrace 1.11, written by Peter Selinger 2001-2013
</metadata>
<g transform="translate(0.000000,2708.000000) scale(0.100000,-0.100000)"
fill="#000000" stroke="none">
<path d="M1750 27068 c-196 -31 -403 -165 -517 -337 -96 -144 -141 -339 -119
-507 12 -88 55 -197 258 -652 286 -645 282 -636 329 -737 17 -38 33 -74 35
-80 2 -8 436 -985 489 -1100 7 -16 115 -259 240 -540 124 -280 234 -528 244
-550 10 -22 74 -164 141 -315 67 -151 132 -295 143 -320 11 -25 21 -47 22 -50
4 -13 51 -118 100 -224 8 -17 104 -234 214 -481 109 -248 211 -477 226 -510
15 -33 38 -84 51 -113 13 -29 24 -54 24 -57 0 -2 15 -36 34 -77 49 -107 77
-168 96 -213 10 -22 27 -61 39 -87 41 -93 64 -145 148 -333 46 -104 90 -203
97 -220 8 -16 62 -138 121 -270 59 -132 114 -256 122 -275 9 -19 26 -57 38
-85 13 -27 30 -66 38 -85 20 -45 144 -326 162 -365 8 -17 43 -96 78 -175 36
-80 74 -165 85 -190 11 -25 119 -268 240 -540 233 -524 741 -1668 772 -1735
10 -22 55 -123 100 -225 45 -102 92 -207 105 -235 13 -27 123 -275 245 -550
122 -275 230 -518 240 -540 10 -22 52 -119 95 -215 42 -96 87 -197 100 -225
13 -27 61 -133 105 -235 45 -102 92 -207 105 -235 13 -27 56 -124 95 -215 40
-91 83 -187 95 -215 13 -27 104 -232 203 -455 176 -397 205 -461 263 -588 16
-35 29 -65 29 -66 0 -2 12 -30 27 -62 15 -33 27 -61 28 -64 1 -3 11 -25 22
-50 18 -40 41 -90 123 -275 12 -27 30 -68 40 -90 18 -40 124 -279 162 -365 11
-25 28 -63 38 -85 52 -114 82 -182 192 -430 65 -148 125 -283 133 -300 7 -16
43 -97 80 -180 37 -82 75 -169 86 -192 10 -24 27 -62 38 -85 10 -24 32 -74 50
-111 17 -37 31 -70 31 -73 0 -3 14 -35 31 -72 17 -37 39 -85 49 -107 10 -22
28 -62 40 -90 12 -27 38 -86 57 -130 20 -44 49 -109 65 -145 17 -36 45 -99 63
-140 18 -41 44 -100 58 -130 13 -30 39 -88 57 -129 27 -62 75 -169 110 -246 5
-11 66 -148 136 -305 69 -157 134 -303 144 -325 10 -22 55 -123 100 -225 45
-102 90 -203 100 -225 10 -22 37 -83 60 -135 23 -52 51 -115 62 -140 11 -25
29 -65 41 -90 11 -25 220 -495 464 -1045 244 -550 453 -1018 463 -1040 10 -22
38 -83 61 -135 23 -52 51 -115 62 -140 11 -25 21 -47 22 -50 0 -3 8 -21 17
-40 9 -19 80 -179 158 -355 78 -176 152 -342 165 -370 13 -27 55 -123 95 -213
39 -90 89 -202 111 -248 21 -47 39 -87 39 -89 0 -5 48 -113 62 -139 5 -10 34
-73 63 -140 29 -66 64 -146 78 -176 14 -30 71 -158 127 -285 55 -126 110 -250
122 -274 11 -25 56 -126 100 -225 43 -100 85 -194 93 -211 7 -16 34 -77 60
-135 25 -58 57 -127 70 -155 12 -27 37 -84 55 -125 18 -41 44 -100 57 -130 14
-30 61 -136 105 -235 95 -215 144 -306 214 -401 58 -80 178 -201 239 -242 22
-14 52 -36 67 -48 64 -51 307 -152 411 -169 17 -3 39 -8 47 -10 29 -9 145 -16
237 -16 245 0 510 87 712 233 81 58 229 212 283 293 69 105 89 147 263 540 54
121 113 253 131 293 19 41 34 75 34 77 0 3 11 28 24 57 13 29 52 116 86 193
34 77 76 169 92 205 32 68 50 112 53 120 0 3 15 36 33 73 18 38 32 70 32 72 0
2 13 32 29 67 16 35 48 106 71 158 23 52 50 113 60 135 38 82 325 728 353 795
9 19 30 67 47 105 17 39 38 84 45 100 49 110 84 189 241 543 97 218 187 420
199 447 24 51 106 236 130 290 22 53 56 129 75 170 27 58 52 115 209 470 78
176 148 334 156 350 7 17 32 73 55 125 24 52 54 120 67 150 14 30 78 174 143
320 65 146 134 300 154 343 20 43 36 81 36 84 0 4 13 34 29 67 16 34 44 95 61
136 18 41 43 98 55 125 67 145 95 207 95 210 0 2 13 32 29 67 16 35 73 162
126 283 54 121 108 243 120 270 13 28 68 151 123 275 55 124 114 255 131 293
17 37 31 71 31 75 0 4 6 19 14 34 8 14 39 84 71 155 31 70 66 148 77 173 11
25 36 81 55 125 20 44 47 105 60 135 14 30 61 136 105 235 44 99 93 208 109
243 16 35 29 65 29 67 0 2 20 46 45 99 25 53 45 99 45 101 0 3 16 39 35 81 19
41 35 77 35 79 0 2 20 48 45 101 25 53 45 98 45 100 0 2 11 27 24 56 13 29 54
121 91 203 37 83 73 164 80 180 45 99 203 455 265 595 40 91 83 188 95 215 27
58 143 320 206 460 46 104 347 782 369 830 12 28 30 68 40 90 10 22 28 63 40
90 12 28 38 86 57 130 20 44 40 86 45 93 6 6 7 12 3 12 -4 0 -3 6 3 13 5 6 22
40 36 74 14 35 37 87 51 115 19 43 195 437 250 563 7 17 24 55 38 85 14 30 98
219 187 420 89 201 175 393 191 428 16 34 29 64 29 66 0 3 13 33 29 68 25 53
203 453 295 663 15 33 31 68 36 77 6 10 10 25 10 33 0 8 5 15 10 15 6 0 10 5
10 11 0 6 7 25 15 42 58 127 125 284 125 294 0 7 5 13 10 13 6 0 10 5 10 11 0
5 8 29 19 52 10 23 83 186 161 362 78 176 150 338 160 360 10 22 46 103 80
180 34 77 70 158 80 180 10 22 46 103 80 180 34 77 69 156 78 175 9 19 17 37
17 40 0 3 12 30 27 60 14 30 105 235 203 455 97 220 192 433 211 473 19 41 34
76 34 78 0 2 18 43 40 90 22 47 40 88 40 90 0 2 20 47 45 100 25 53 45 98 45
101 0 3 16 39 35 80 19 41 35 76 35 78 0 2 13 32 29 67 16 35 47 104 69 153
22 50 49 111 61 138 11 26 31 68 42 95 12 26 38 85 59 132 21 47 47 105 58
130 12 25 150 335 307 690 158 355 300 673 316 708 16 35 29 65 29 68 0 2 14
34 31 71 17 38 37 82 45 99 11 27 48 107 89 198 7 17 22 51 33 76 16 37 483
1089 526 1185 8 17 26 57 41 90 15 33 71 159 125 280 53 121 107 240 118 265
11 25 37 83 57 130 21 47 53 118 71 158 19 41 34 75 34 77 0 2 18 42 40 89 22
47 40 88 40 90 0 3 18 44 40 91 22 47 40 88 40 90 0 2 20 48 45 101 25 53 45
97 45 99 0 2 13 32 29 67 16 35 55 122 86 193 31 72 68 153 80 182 13 28 103
229 199 446 201 452 217 503 212 667 -7 191 -80 355 -220 495 -159 159 -351
236 -570 230 -166 -5 -307 -64 -483 -202 -61 -49 -198 -155 -305 -238 -106
-82 -200 -155 -208 -162 -8 -7 -296 -231 -640 -498 -344 -267 -633 -492 -643
-500 -9 -8 -21 -15 -26 -15 -5 0 -11 -4 -13 -9 -2 -5 -34 -32 -73 -62 -38 -29
-75 -58 -81 -64 -7 -5 -45 -35 -85 -67 -83 -63 -1207 -935 -1255 -973 -50 -40
-557 -434 -588 -458 -16 -12 -75 -58 -132 -102 -56 -44 -209 -163 -340 -265
-132 -102 -246 -191 -254 -197 -16 -13 -1245 -968 -1294 -1006 -38 -29 -327
-254 -346 -270 -9 -6 -33 -25 -55 -42 -123 -94 -690 -535 -869 -675 -66 -53
-191 -149 -276 -215 -188 -145 -169 -130 -205 -158 -50 -40 -770 -600 -805
-627 -80 -61 -225 -175 -230 -180 -3 -3 -21 -17 -40 -30 -19 -13 -37 -27 -40
-30 -5 -6 -29 -24 -1260 -980 -421 -327 -767 -596 -770 -599 -3 -4 -32 -26
-65 -50 -33 -24 -68 -51 -77 -60 -23 -21 -37 -32 -78 -61 -19 -13 -37 -27 -40
-30 -3 -3 -20 -17 -39 -32 l-34 -26 -391 304 c-215 168 -404 315 -421 328 -34
28 -484 377 -535 416 -18 14 -59 45 -90 70 -88 69 -117 92 -230 179 -58 45
-159 124 -225 175 -66 52 -277 216 -470 366 -192 149 -357 276 -365 283 -8 7
-157 122 -330 256 -173 135 -329 256 -346 270 -18 14 -45 36 -60 47 -16 12
-65 50 -110 85 -45 35 -96 75 -114 89 -18 14 -120 93 -226 175 -106 83 -205
159 -220 170 -15 11 -32 25 -38 30 -6 6 -87 69 -179 140 -145 112 -306 238
-357 278 -8 7 -125 98 -260 202 -135 104 -252 195 -260 202 -8 7 -53 42 -100
78 -47 36 -92 71 -100 78 -8 7 -53 42 -99 77 -46 36 -107 83 -136 105 -28 22
-78 60 -111 85 -32 25 -61 47 -64 50 -3 3 -79 63 -170 134 -91 70 -180 139
-199 154 -19 15 -91 71 -160 125 -69 53 -133 103 -141 110 -8 6 -125 97 -260
201 -135 104 -261 202 -280 218 -19 15 -184 144 -367 286 -576 447 -1309 1017
-1398 1087 -16 12 -77 59 -135 104 -58 44 -136 106 -175 136 -64 50 -365 285
-475 370 -25 19 -193 151 -375 291 -181 141 -342 266 -357 278 -14 12 -41 32
-59 46 -18 14 -67 52 -109 85 -42 33 -92 71 -110 85 -32 25 -297 230 -355 276
-350 274 -411 312 -560 344 -66 15 -206 19 -275 8z"/>
</g>
</svg>
